<?xml version="1.0" encoding="utf-8"?>
<!-- Generator: Adobe Illustrator 21.0.0, SVG Export Plug-In . SVG Version: 6.00 Build 0)  -->
<svg version="1.1" id="Layer_1" xmlns="http://www.w3.org/2000/svg" xmlns:xlink="http://www.w3.org/1999/xlink" x="0px" y="0px"
	 viewBox="0 0 52.2 44.3" style="enable-background:new 0 0 52.2 44.3;" xml:space="preserve">
<style type="text/css">
	.st0{fill:#0167F3;}
</style>
<g>
	<g>
		<path class="st0" d="M25.9,36.8c0,2.4,1.9,4.4,4.4,4.4s4.4-1.9,4.4-4.4c0-2.4-2-4.4-4.4-4.4S25.9,34.5,25.9,36.8z M28.7,36.8
			c0-0.8,0.7-1.5,1.5-1.5s1.5,0.7,1.5,1.5s-0.7,1.6-1.5,1.6C29.4,38.4,28.7,37.7,28.7,36.8z"/>
		<path class="st0" d="M35.9,36.8c0,2.4,1.9,4.4,4.4,4.4c2.4,0,4.4-1.9,4.4-4.4c0-2.4-2-4.4-4.4-4.4C37.9,32.5,35.9,34.5,35.9,36.8z
			 M38.8,36.8c0-0.8,0.7-1.5,1.5-1.5s1.5,0.7,1.5,1.5s-0.7,1.6-1.5,1.6C39.4,38.4,38.8,37.7,38.8,36.8z"/>
		<path class="st0" d="M50.7,14.2c-0.3-0.5-1.2-0.8-1.8-0.8H22l-2-8.7c-0.2-0.8-0.9-1.5-1.8-1.5h-5c-1,0-1.8,0.7-1.8,1.7
			s0.7,1.8,1.8,1.8h3.6l5,22.5c0.2,0.8,0.9,1.5,1.8,1.5h21.1c1.2,0,2.2-0.7,2.3-1.8l4-12.4C51.4,15.5,51.3,14.7,50.7,14.2z
			 M30.6,27.1h-5.5l-1-4.9h6.4L30.6,27.1L30.6,27.1z M30.6,20.6h-6.7l-0.8-3.8h7.5C30.6,16.8,30.6,20.6,30.6,20.6z M37.9,27.1h-5.8
			v-4.9h5.8V27.1z M37.9,20.6h-5.8v-3.8h5.8V20.6z M44.1,27.1h-4.4v-4.9h6L44.1,27.1z M46.2,20.6h-6.6v-3.8h7.9L46.2,20.6z"/>
	</g>
	<g>
		<path class="st0" d="M19.7,30.4c0,0.1,0,0.2-0.1,0.2h-4.2c-0.7,0-1.3-0.6-1.3-1.3c0-0.3,0.2-0.7,0.3-0.8c0.3-0.3,0.5-0.3,0.8-0.3
			h1.5c0.3,0,0.7-0.2,0.8-0.3c0.2-0.2,0.3-0.3,0.3-0.5c0.2-0.8-0.5-1.6-1.3-1.6H7.7c-0.7,0-1.3-0.6-1.3-1.3c0-0.3,0.2-0.7,0.3-0.8
			c0.3-0.3,0.5-0.3,0.8-0.3h4.2c0.3,0,0.7-0.2,0.8-0.3s0.3-0.3,0.3-0.5c0.2-0.8-0.5-1.6-1.3-1.6h-1.3c-0.7,0-1.3-0.6-1.3-1.3
			c0-0.3,0.2-0.7,0.3-0.8c0.3-0.3,0.5-0.3,0.8-0.3h4.1c0.3,0,0.7-0.2,0.8-0.3c0.3-0.3,0.3-0.5,0.3-0.8c0-0.7-0.5-1.2-1.1-1.3H14
			h-0.2h-12c-0.7,0-1.3-0.6-1.3-1.3c0-0.3,0.2-0.7,0.3-0.8c0.3-0.3,0.5-0.3,0.8-0.3h8.2c0.3,0,0.6-0.2,0.8-0.3
			c0.2-0.2,0.3-0.3,0.3-0.5c0.2-0.8-0.5-1.6-1.3-1.6H7.9c-0.7,0-1.3-0.6-1.3-1.3c0-0.6,0.2-1,0.4-1.1c0.3-0.3,0.5-0.3,0.8-0.3h6.9
			c0.1,0,0.1,0,0.1,0.1L19.7,30.4z"/>
		<path class="st0" d="M13.4,29.3c0,0.3-0.2,0.7-0.3,0.8c-0.3,0.3-0.5,0.3-0.8,0.3H9.6c-0.7,0-1.3-0.5-1.3-1.3
			c0-0.3,0.2-0.7,0.3-0.8C8.9,28.1,9.2,28,9.5,28h2.6C12.9,28.1,13.4,28.7,13.4,29.3z"/>
		<path class="st0" d="M7.9,19.5c0,0.3-0.2,0.7-0.3,0.8c-0.2,0.3-0.5,0.3-0.8,0.3H4.2C3.6,20.8,3,20.2,3,19.5c0-0.3,0.2-0.7,0.3-0.8
			c0.3-0.3,0.5-0.3,0.8-0.3h2.5C7.4,18.4,7.9,19,7.9,19.5z"/>
	</g>
</g>
</svg>
