<?xml version="1.0" encoding="utf-8"?>
<!-- Generator: Adobe Illustrator 21.0.0, SVG Export Plug-In . SVG Version: 6.00 Build 0)  -->
<svg version="1.1" id="Layer_1" xmlns="http://www.w3.org/2000/svg" xmlns:xlink="http://www.w3.org/1999/xlink" x="0px" y="0px"
	 viewBox="0 0 245 51.2" style="enable-background:new 0 0 245 51.2;" xml:space="preserve">
<style type="text/css">
	.st0{fill:#0167F3;}
</style>
<g>
	<g>
		<path class="st0" d="M32.2,43.1c0,2.9,2.3,5.2,5.2,5.2s5.2-2.3,5.2-5.2s-2.4-5.2-5.2-5.2S32.2,40.3,32.2,43.1z M35.6,43.1
			c0-1,0.8-1.8,1.8-1.8s1.8,0.8,1.8,1.8S38.4,45,37.4,45S35.6,44.1,35.6,43.1z"/>
		<path class="st0" d="M44.2,43.1c0,2.9,2.3,5.2,5.2,5.2s5.2-2.3,5.2-5.2s-2.4-5.2-5.2-5.2S44.2,40.3,44.2,43.1z M47.6,43.1
			c0-1,0.8-1.8,1.8-1.8s1.8,0.8,1.8,1.8S50.4,45,49.4,45S47.6,44.1,47.6,43.1z"/>
		<path class="st0" d="M61.8,16.1c-0.4-0.6-1.4-1-2.2-1h-32L25.2,4.7c-0.2-1-1.1-1.8-2.1-1.8h-5.9c-1.2,0-2.1,0.8-2.1,2
			S15.9,7,17.2,7h4.3l5.9,26.8c0.2,1,1.1,1.8,2.1,1.8h25.2c1.4,0,2.6-0.8,2.8-2.2l4.7-14.5C62.7,17.7,62.5,16.7,61.8,16.1z
			 M37.9,31.5h-6.5l-1.2-5.8h7.6v5.8H37.9z M37.9,23.7h-8L29,19.2h8.9V23.7z M46.6,31.5h-6.9v-5.8h6.9V31.5z M46.6,23.7h-6.9v-4.5
			h6.9V23.7z M53.9,31.5h-5.3v-5.8h7.2L53.9,31.5z M56.4,23.7h-7.9v-4.5h9.4L56.4,23.7z"/>
	</g>
	<g>
		<path class="st0" d="M24.9,35.4c0,0.1,0,0.2-0.1,0.2h-5c-0.8,0-1.5-0.7-1.5-1.5c0-0.4,0.2-0.8,0.4-1c0.3-0.3,0.6-0.4,1-0.4h1.8
			c0.4,0,0.8-0.2,1-0.4s0.3-0.4,0.4-0.6c0.2-1-0.6-1.9-1.6-1.9H10.5c-0.8,0-1.5-0.7-1.5-1.5c0-0.4,0.2-0.8,0.4-1
			c0.3-0.3,0.6-0.4,1-0.4h5c0.4,0,0.8-0.2,1-0.4c0.2-0.2,0.3-0.4,0.4-0.6c0.2-1-0.6-1.9-1.6-1.9h-1.5c-0.8,0-1.5-0.7-1.5-1.5
			c0-0.4,0.2-0.8,0.4-1c0.3-0.3,0.6-0.4,1-0.4h4.9c0.4,0,0.8-0.2,1-0.4c0.3-0.3,0.4-0.6,0.4-1c0-0.8-0.6-1.4-1.3-1.5h-0.1h-0.2H4
			c-0.8,0-1.5-0.7-1.5-1.5c0-0.4,0.2-0.8,0.4-1c0.3-0.3,0.6-0.4,1-0.4h9.8c0.4,0,0.7-0.2,0.9-0.4s0.3-0.4,0.4-0.6
			c0.2-1-0.6-1.9-1.6-1.9h-2.6c-0.8,0-1.5-0.7-1.5-1.5c0-0.4,0.2-0.8,0.4-1c0.3-0.3,0.6-0.4,1-0.4h8.2c0.1,0,0.1,0,0.1,0.1
			L24.9,35.4z"/>
		<path class="st0" d="M17.3,34.1c0,0.4-0.2,0.8-0.4,1c-0.3,0.3-0.6,0.4-1,0.4h-3.1c-0.8,0-1.5-0.6-1.5-1.5c0-0.4,0.2-0.8,0.4-1
			c0.3-0.3,0.6-0.4,1-0.4h3.1C16.7,32.7,17.3,33.4,17.3,34.1z"/>
		<path class="st0" d="M10.8,22.5c0,0.4-0.2,0.8-0.4,1c-0.2,0.3-0.6,0.4-1,0.4h-3C5.7,24,5,23.3,5,22.5c0-0.4,0.2-0.8,0.4-1
			c0.3-0.3,0.6-0.4,1-0.4h3C10.2,21.1,10.8,21.8,10.8,22.5z"/>
	</g>
	<g>
		<path class="st0" d="M82.1,37.6c-1.8,0-3.5-0.3-4.9-1c-1.5-0.6-2.7-1.6-3.6-2.8s-1.5-2.6-1.8-4.3l4.8-0.7c0.3,1.4,1,2.5,2.1,3.3
			s2.3,1.1,3.6,1.1c0.8,0,1.5-0.1,2.2-0.4c0.7-0.2,1.3-0.6,1.8-1.1c0.5-0.5,0.7-1,0.7-1.7c0-0.2,0-0.5-0.1-0.7s-0.2-0.5-0.4-0.7
			c-0.2-0.2-0.4-0.4-0.7-0.6s-0.7-0.3-1.2-0.5l-6.4-1.9c-0.5-0.1-1-0.3-1.7-0.6c-0.6-0.3-1.2-0.6-1.8-1.1s-1.1-1.1-1.5-1.8
			s-0.6-1.7-0.6-2.9c0-1.6,0.4-3,1.2-4.1s1.9-1.9,3.3-2.4s2.9-0.8,4.6-0.8s3.2,0.3,4.5,0.9s2.4,1.4,3.3,2.4s1.5,2.4,1.9,3.9l-5,0.9
			c-0.2-0.8-0.5-1.5-1-2s-1.1-1-1.7-1.2c-0.7-0.3-1.4-0.4-2.1-0.5c-0.7,0-1.4,0.1-2.1,0.3c-0.6,0.2-1.2,0.5-1.6,1
			c-0.4,0.4-0.6,0.9-0.6,1.5c0,0.5,0.2,1,0.5,1.3s0.7,0.6,1.2,0.8c0.5,0.2,1,0.4,1.5,0.5l4.3,1.2c0.6,0.2,1.3,0.4,2.1,0.7
			s1.5,0.7,2.2,1.2s1.3,1.1,1.8,2c0.5,0.8,0.7,1.8,0.7,3.1c0,1.3-0.3,2.5-0.8,3.5c-0.6,1-1.3,1.8-2.2,2.4c-0.9,0.6-2,1.1-3.2,1.4
			S83.3,37.6,82.1,37.6z"/>
		<path class="st0" d="M112.3,26.8v10.3h-4.7v-8.7c0-0.4,0-1-0.1-1.6c0-0.6-0.2-1.3-0.4-2c-0.2-0.7-0.6-1.2-1.2-1.7
			c-0.5-0.4-1.3-0.7-2.3-0.7c-0.4,0-0.8,0.1-1.3,0.2s-0.9,0.4-1.3,0.7c-0.4,0.4-0.7,0.9-1,1.6s-0.4,1.6-0.4,2.8V37H95V12.6h4.1v8
			c0.4-0.5,0.9-0.9,1.5-1.3c1.2-0.8,2.7-1.2,4.5-1.2c1.4,0,2.6,0.3,3.5,0.7c0.9,0.5,1.6,1.1,2.1,1.8c0.5,0.8,0.9,1.5,1.1,2.4
			c0.2,0.8,0.4,1.5,0.4,2.2C112.2,26,112.3,26.5,112.3,26.8z"/>
		<path class="st0" d="M124.3,37.6c-1.9,0-3.5-0.4-4.9-1.2s-2.5-2-3.3-3.4c-0.8-1.5-1.2-3.1-1.2-5s0.4-3.6,1.2-5.1
			c0.8-1.5,1.9-2.6,3.3-3.4s3-1.2,4.8-1.2c1.9,0,3.5,0.4,4.9,1.2c1.4,0.8,2.5,2,3.3,3.4c0.8,1.5,1.2,3.1,1.2,5s-0.4,3.6-1.2,5.1
			s-1.9,2.6-3.3,3.4C127.8,37.2,126.1,37.6,124.3,37.6z M124.3,33.3c1.5,0,2.6-0.5,3.3-1.5c0.7-1,1.1-2.3,1.1-3.9s-0.4-2.9-1.1-3.9
			c-0.7-1-1.8-1.5-3.3-1.5c-1,0-1.8,0.2-2.5,0.7c-0.6,0.5-1.1,1.1-1.4,1.9s-0.5,1.7-0.5,2.8c0,1.6,0.4,3,1.1,3.9
			C121.8,32.8,122.8,33.3,124.3,33.3z"/>
		<path class="st0" d="M153.1,22.9c-0.7-1.5-1.7-2.6-3-3.5c-1.3-0.8-2.8-1.3-4.6-1.3s-3.2,0.4-4.4,1.3c-0.1,0.1-0.2,0.2-0.3,0.3v-1
			h-4.1v26.6h4.7v-8.8c1.2,0.8,2.7,1.2,4.4,1.2s3.2-0.4,4.5-1.3c1.3-0.9,2.3-2,3-3.5s1.1-3.1,1.1-5C154.2,26,153.9,24.4,153.1,22.9z
			 M148.9,30.7c-0.3,0.8-0.8,1.5-1.4,2s-1.5,0.8-2.5,0.8s-1.9-0.2-2.5-0.7s-1.1-1.1-1.3-2c-0.3-0.8-0.4-1.8-0.4-2.9s0.1-2.1,0.4-2.9
			c0.3-0.8,0.7-1.5,1.3-2s1.4-0.7,2.4-0.7s1.9,0.3,2.5,0.8c0.7,0.5,1.2,1.2,1.5,2c0.3,0.9,0.5,1.8,0.5,2.8
			C149.3,29,149.2,29.9,148.9,30.7z"/>
		<path d="M167.5,37.6c-1.5,0-3-0.3-4.4-0.8c-1.4-0.6-2.6-1.4-3.7-2.4s-1.9-2.4-2.5-4S156,27,156,24.9c0-2.7,0.5-5,1.6-6.9
			c1-1.9,2.4-3.4,4.2-4.4s3.7-1.5,5.8-1.5c3.2,0,5.6,0.7,7.5,2.2c1.8,1.5,3,3.5,3.6,6.2l-4.7,0.7c-0.4-1.4-1.2-2.6-2.2-3.4
			c-1-0.9-2.3-1.3-3.9-1.3c-1.6,0-2.9,0.3-3.9,1s-1.8,1.7-2.3,2.9c-0.5,1.3-0.8,2.8-0.8,4.5s0.3,3.2,0.8,4.4
			c0.5,1.3,1.3,2.2,2.3,2.9c1,0.7,2.3,1.1,3.9,1.1c1.1,0,2-0.2,2.9-0.5s1.6-1,2.2-1.8c0.6-0.8,1-1.9,1.3-3.2h-3.9v-3.6h8.8
			c0,0.1,0,0.4,0.1,0.8c0,0.4,0,0.6,0,0.6c0,2.4-0.5,4.4-1.4,6.3c-0.9,1.9-2.3,3.2-4,4.3C171.9,37.1,169.9,37.6,167.5,37.6z"/>
		<path d="M192.7,18.7V23c-0.5-0.2-1.1-0.2-1.8-0.2s-1.3,0.2-1.8,0.5s-1,0.6-1.4,1s-0.7,0.9-0.8,1.5s-0.3,1.2-0.3,1.9v9.4h-4.7V18.7
			h4.1v3c0.2-0.3,0.3-0.5,0.5-0.8c0.4-0.5,0.9-1,1.5-1.3c0.4-0.3,0.9-0.5,1.5-0.6c0.5-0.2,1.1-0.3,1.6-0.3
			C191.6,18.6,192.1,18.6,192.7,18.7z"/>
		<path d="M195.6,16.2v-4.1h4.6v4.1H195.6z M195.6,37.1V18.7h4.6v18.4H195.6z"/>
		<path d="M216.5,12.6v6.8c-1.1-0.8-2.5-1.1-4.2-1.1c-1.8,0-3.3,0.4-4.6,1.3c-1.3,0.8-2.3,2-3,3.5s-1.1,3.1-1.1,5
			c0,1.8,0.4,3.5,1.1,5c0.7,1.5,1.7,2.6,3,3.5s2.8,1.3,4.5,1.3c1.8,0,3.4-0.4,4.6-1.3c0.1-0.1,0.3-0.2,0.4-0.3v1.1h4.1V12.6H216.5z
			 M216.7,30.9c-0.3,0.8-0.7,1.5-1.3,2s-1.4,0.7-2.5,0.7c-1,0-1.8-0.3-2.5-0.8c-0.6-0.5-1.1-1.2-1.4-2c-0.3-0.8-0.5-1.8-0.5-2.8
			s0.2-2,0.5-2.8s0.8-1.5,1.5-2s1.5-0.8,2.5-0.8s1.8,0.2,2.3,0.7c0.6,0.5,1,1.1,1.3,2c0.3,0.8,0.4,1.8,0.4,2.9
			C217.1,29,217,30,216.7,30.9z"/>
		<path d="M232.5,37.6c-2.3,0-4.2-0.5-5.6-1.6c-1.4-1.1-2.3-2.5-2.6-4.5l4.7-0.7c0.2,0.9,0.6,1.5,1.3,2s1.5,0.7,2.5,0.7
			c0.8,0,1.5-0.2,1.9-0.5c0.5-0.3,0.7-0.8,0.7-1.4c0-0.4-0.1-0.7-0.3-0.9s-0.6-0.4-1.2-0.7s-1.6-0.5-2.9-0.9
			c-1.5-0.4-2.7-0.8-3.6-1.3c-0.9-0.5-1.5-1-1.9-1.7s-0.6-1.5-0.6-2.4c0-1.2,0.3-2.2,0.9-3.1s1.5-1.5,2.5-2s2.4-0.7,3.9-0.7
			c1.4,0,2.7,0.2,3.8,0.7c1.1,0.4,2,1.1,2.7,1.9s1.1,1.8,1.3,2.9l-4.7,0.9c-0.1-0.7-0.4-1.2-0.9-1.6s-1.2-0.6-2.1-0.7
			c-0.9-0.1-1.5,0.1-2.1,0.3c-0.5,0.3-0.8,0.7-0.8,1.2c0,0.3,0.1,0.6,0.3,0.8s0.7,0.4,1.4,0.7s1.8,0.5,3.2,0.9s2.5,0.8,3.4,1.3
			c0.8,0.5,1.5,1.1,1.8,1.7c0.4,0.7,0.6,1.5,0.6,2.4c0,1.9-0.7,3.4-2,4.4C236.8,37.1,234.9,37.6,232.5,37.6z"/>
	</g>
</g>
</svg>
